<svg version="1.1" id="Layer_1" xmlns="http://www.w3.org/2000/svg" xmlns:xlink="http://www.w3.org/1999/xlink" x="0px" y="0px"
	 width="100%" viewBox="0 0 272 272" enable-background="new 0 0 272 272" xml:space="preserve">
<path fill="#000000" opacity="1.000000" stroke="none" 
	d="
M49.416664,273.000000 
	C57.137383,261.986572 67.829666,254.164825 80.341553,249.008102 
	C85.156357,247.023682 88.286270,244.402206 90.278152,239.544205 
	C91.798988,235.835007 92.215965,230.309296 98.880402,231.247360 
	C100.556458,231.483307 100.935394,228.826813 101.357162,227.296585 
	C103.300606,220.245438 104.999557,213.125809 107.013084,206.095734 
	C107.610458,204.010071 107.134880,202.601944 105.792580,201.143753 
	C99.073341,193.844284 94.899994,185.178986 93.010384,175.544754 
	C92.045631,170.625916 87.611801,170.461258 84.659454,168.759781 
	C77.241020,164.484467 73.563080,158.791870 74.996872,150.442291 
	C75.539803,147.280579 75.019783,144.672516 73.926888,141.795258 
	C71.211937,134.647659 67.559303,127.855469 65.688225,120.390511 
	C64.202393,114.462555 63.957375,108.387871 65.872368,102.635201 
	C67.624359,97.372192 64.937775,95.687050 60.873253,94.417114 
	C59.146160,93.877502 57.416340,93.346611 54.968128,92.589096 
	C59.768246,87.496590 65.722908,89.269669 71.110016,88.435692 
	C71.387390,84.154114 66.817749,83.526917 65.448868,80.278084 
	C68.725945,77.622459 72.500626,77.910538 76.161888,78.654549 
	C79.540154,79.341034 82.012154,78.524971 84.750351,76.356522 
	C98.575745,65.407837 114.630058,59.108673 131.523956,54.700115 
	C147.679489,50.484241 163.567429,45.585564 177.573853,36.086918 
	C179.550842,34.746189 181.154404,35.005772 183.100143,35.993774 
	C191.662674,40.341595 196.958160,49.765476 196.044769,60.043667 
	C195.441772,66.828949 194.797333,73.756210 189.727219,79.090027 
	C188.122238,80.778503 188.893616,82.454056 189.287766,84.210556 
	C191.142868,92.477524 194.285217,100.776672 193.326004,109.216812 
	C191.514587,125.155617 197.849548,139.540634 200.631989,154.577316 
	C205.152237,179.005432 192.520065,204.006485 169.946045,214.440262 
	C167.212479,215.703735 163.036682,215.849548 162.619431,219.614365 
	C162.144394,223.900391 163.583435,228.138702 165.275513,232.149506 
	C165.458893,232.584198 165.893539,233.239273 166.215256,233.241394 
	C173.573090,233.289841 175.052094,240.074799 178.543594,244.317841 
	C180.803818,247.064621 183.134216,248.778366 186.514709,249.693695 
	C201.578690,253.772430 215.054886,260.684479 225.866547,272.692688 
	C224.285645,273.000000 222.571289,273.000000 220.311981,272.687805 
	C210.109543,262.387665 198.223389,256.472076 184.865906,253.208511 
	C182.256454,252.570953 179.797928,252.191956 177.049210,252.977890 
	C148.743683,261.071167 120.584412,260.070770 92.595413,251.311401 
	C90.689804,250.715012 88.741478,249.771423 86.764618,250.509369 
	C73.984436,255.280090 62.146141,261.462189 54.000000,273.000000 
	C52.611111,273.000000 51.222221,273.000000 49.416664,273.000000 
M152.889679,133.857605 
	C142.898834,134.131393 142.909271,134.129990 144.145660,143.328369 
	C144.300293,144.478821 144.237610,145.656708 144.339249,146.816315 
	C144.744720,151.442612 142.779114,154.042679 138.055191,154.640503 
	C131.633621,155.453125 125.191658,156.220337 118.840836,157.437134 
	C114.357414,158.296127 110.553932,158.466019 108.368408,153.538681 
	C107.923416,152.535446 106.808685,152.308121 105.784241,152.356873 
	C102.955421,152.491486 102.237473,150.614227 101.558723,148.375778 
	C100.845100,146.022324 100.181007,142.201569 97.982773,142.244629 
	C92.726723,142.347549 86.932144,140.480850 82.241432,144.658661 
	C78.551971,147.944687 77.552208,152.836929 79.508835,158.423615 
	C81.298531,163.533676 85.285057,165.294968 90.334465,165.750153 
	C92.494484,165.944870 94.877731,164.116455 97.139046,166.533524 
	C94.302513,170.295181 96.328232,174.099609 97.436485,177.748383 
	C104.053848,199.535141 118.814392,212.610489 141.288666,215.218124 
	C161.409149,217.552643 177.989349,209.643250 189.270340,192.634460 
	C201.374237,174.384918 199.301483,157.954315 191.749222,135.671509 
	C190.912354,137.232895 192.091110,138.586655 192.125748,140.035812 
	C192.218750,143.925156 190.983887,147.159286 186.786331,147.866943 
	C178.928711,149.191620 171.027267,150.286819 163.117065,151.257477 
	C158.673965,151.802704 156.494461,149.309204 155.556061,145.092392 
	C154.763184,141.529510 155.137665,137.740768 152.889679,133.857605 
M121.060196,100.852226 
	C116.569664,101.024826 112.079559,101.209496 107.588493,101.366646 
	C103.024055,101.526367 100.268394,103.550896 99.180779,108.257378 
	C97.039635,117.522881 100.335724,125.797493 103.148651,134.202637 
	C102.933990,131.588959 102.157730,129.065369 101.778351,126.483482 
	C101.273224,123.045731 102.208771,119.372375 105.833534,118.946907 
	C114.360580,117.946030 121.597351,111.938118 131.271561,114.449135 
	C139.210724,116.509819 140.390320,115.947914 141.368774,124.702866 
	C141.753082,128.141510 142.086441,131.427612 147.163177,130.595459 
	C151.554169,129.875702 153.868698,128.149246 152.520218,123.393700 
	C152.248260,122.434555 152.046677,121.446632 151.913666,120.458389 
	C151.200241,115.158150 152.874100,112.657440 158.155975,111.593048 
	C162.602600,110.696983 167.104019,110.072754 172.348251,109.200638 
	C168.421570,107.526718 164.992126,111.582176 161.864853,108.493103 
	C165.386520,104.366547 170.739441,103.640915 177.392532,106.402275 
	C179.885132,107.436813 182.250443,108.613525 185.123642,106.950287 
	C184.550781,101.044113 182.150543,95.788094 179.403610,90.648582 
	C178.216187,88.426872 176.570114,88.298401 174.377258,89.243034 
	C157.654648,96.446823 139.986954,99.371849 121.060196,100.852226 
M168.106354,237.972412 
	C153.766922,241.026443 139.395172,243.275391 124.631630,241.394455 
	C117.364838,240.468628 110.193741,239.228424 103.175865,237.180038 
	C95.328255,234.889450 96.892120,234.625732 93.445732,241.713516 
	C92.741524,243.161774 91.677788,244.554840 92.108719,247.316986 
	C119.747269,256.031036 147.744339,256.711792 176.738800,249.386597 
	C174.341919,244.554962 171.727890,241.214478 168.106354,237.972412 
M160.499237,146.895508 
	C161.113251,147.114563 161.760712,147.589218 162.336212,147.513916 
	C169.740662,146.544998 177.142471,145.548477 184.527542,144.442657 
	C187.129868,144.052994 187.907211,142.232269 187.846008,139.714493 
	C187.684326,133.063217 187.840744,126.400124 187.518143,119.758842 
	C187.389847,117.117676 187.660553,114.123238 184.998154,111.396645 
	C182.936890,116.784569 180.063141,112.112427 177.486069,112.479019 
	C171.081894,113.389999 164.688568,114.379852 158.298798,115.388069 
	C156.404297,115.686996 155.204239,116.775436 155.602448,118.832504 
	C157.366226,127.943420 157.619965,137.294479 160.499237,146.895508 
M115.284599,236.132736 
	C130.572601,238.603745 145.790482,238.979843 161.194962,235.233276 
	C160.120651,230.839569 156.790146,231.722168 154.572159,231.579300 
	C142.261230,230.786209 132.311005,225.568542 124.313843,216.337708 
	C120.678802,212.141922 115.580261,210.130127 110.915054,206.499573 
	C109.233612,212.775406 107.745926,218.196136 106.331398,223.635910 
	C103.625023,234.043610 103.642288,234.048096 115.284599,236.132736 
M108.999207,126.275925 
	C108.420448,125.114212 110.057388,123.683578 108.362305,122.463043 
	C105.716415,122.980629 105.290581,124.483688 105.982185,127.093491 
	C107.935013,134.462570 109.740723,141.873856 111.430702,149.307983 
	C112.257675,152.945770 114.295052,154.236038 117.875298,153.673462 
	C123.934761,152.721298 129.990143,151.676865 136.086044,151.046280 
	C140.121841,150.628830 141.079453,148.592041 140.545364,145.011108 
	C139.494186,137.962875 138.547363,130.899139 137.548203,123.843109 
	C137.006638,120.018730 135.646927,117.578644 130.987061,119.004662 
	C128.326736,119.818771 125.434250,120.121445 122.636223,120.180992 
	C118.312775,120.273003 114.818726,121.387062 112.887001,125.654045 
	C112.214188,127.140221 111.079872,128.123642 108.999207,126.275925 
z"/>
<path fill="#000000" opacity="1.000000" stroke="none" 
	d="
M18.530293,1.000000 
	C10.870838,4.541388 4.821251,10.164704 1.240190,18.749903 
	C1.000000,13.074268 1.000000,7.148537 1.000000,1.000000 
	C6.684937,1.000000 12.372760,1.000000 18.530293,1.000000 
z"/>
<path fill="#000000" opacity="1.000000" stroke="none" 
	d="
M1.000000,262.482971 
	C3.211159,265.292847 3.957333,269.391846 6.857115,272.692200 
	C5.056474,273.000000 3.112948,273.000000 1.000000,273.000000 
	C1.000000,269.656342 1.000000,266.311127 1.000000,262.482971 
z"/>
<path fill="#000000" opacity="1.000000" stroke="none" 
	d="
M273.000000,5.500038 
	C269.766418,4.549832 266.532837,3.099663 263.149628,1.324747 
	C266.218414,1.000000 269.436798,1.000000 273.000000,1.000000 
	C273.000000,2.319884 273.000000,3.659980 273.000000,5.500038 
z"/>
<path fill="#000000" opacity="1.000000" stroke="none" 
	d="
M123.703918,183.797394 
	C123.686562,181.674423 123.635010,180.007507 123.682251,178.343384 
	C123.824875,173.318756 126.157181,170.803375 131.146072,171.251617 
	C144.026749,172.408920 156.693497,171.356796 169.326859,168.750015 
	C175.783081,167.417816 178.645142,169.898788 179.222214,176.466690 
	C180.347549,189.274734 179.200668,190.616608 166.265472,190.283981 
	C155.745895,190.013474 145.346497,190.511292 135.030563,192.832657 
	C126.995308,194.640823 124.444099,192.536652 123.703918,183.797394 
M162.124481,174.045990 
	C153.606598,175.908295 144.963165,175.245056 136.356277,175.349762 
	C135.088898,175.365189 133.522705,174.898346 132.757812,176.360428 
	C131.912186,177.976807 132.972336,179.196167 134.033203,180.288971 
	C134.608978,180.882080 135.308441,181.370148 135.184052,182.479126 
	C134.249969,184.004929 132.299332,185.644699 133.698257,187.664795 
	C135.119965,189.717789 137.309799,188.304443 139.195053,188.033142 
	C148.207687,186.736176 157.198013,185.084503 166.370041,186.550278 
	C167.643616,186.753799 169.028870,186.907562 170.206467,185.931503 
	C171.720627,182.912247 168.541016,181.648956 167.683624,179.463333 
	C168.701675,177.482864 170.625488,175.778809 169.624374,172.813934 
	C167.422958,173.145676 165.174271,173.484528 162.124481,174.045990 
z"/>
<path fill="#000000" opacity="1.000000" stroke="none" 
	d="
M155.197205,159.329620 
	C152.188019,160.516327 149.550140,161.175430 147.076843,159.384430 
	C146.986542,157.585388 147.901077,156.857086 149.184113,156.853958 
	C154.374954,156.841293 153.808380,154.291733 152.335327,150.686966 
	C151.219620,147.956680 150.844284,144.916290 150.216309,141.997375 
	C149.896835,140.512497 149.670685,138.963409 151.636749,138.201859 
	C153.833298,138.523041 153.901550,140.466537 154.049103,141.979507 
	C154.412247,145.702820 155.563019,149.129379 157.277496,152.401047 
	C158.739822,155.191574 158.503845,157.513931 155.197205,159.329620 
z"/>
<path fill="#000000" opacity="1.000000" stroke="none" 
	d="
M93.624863,147.730865 
	C91.569191,148.521667 89.899063,149.080200 91.195671,151.625381 
	C91.711304,152.637543 91.994110,153.824509 92.126152,154.961700 
	C92.291481,156.385544 92.733406,158.250305 90.746399,158.681747 
	C88.740959,159.117157 88.381615,157.394043 88.073174,155.881790 
	C87.780060,154.444641 87.954460,152.866623 86.721558,151.557343 
	C84.936409,150.650375 84.379906,153.907501 81.644569,152.522598 
	C81.102402,148.871506 83.612076,146.676834 86.852592,145.538696 
	C89.266434,144.690918 92.696556,142.643539 93.624863,147.730865 
z"/>
<path fill="#000000" opacity="1.000000" stroke="none" 
	d="
M169.360947,134.917480 
	C167.913986,134.066833 166.620529,133.506653 165.823502,132.537994 
	C163.670944,129.921844 162.928604,126.938042 164.764740,123.827316 
	C166.349060,121.143188 168.756760,119.920204 171.893372,120.654686 
	C175.271225,121.445671 176.760071,124.009598 177.133469,127.122787 
	C177.552567,130.617188 175.935226,133.205490 172.615753,134.526474 
	C171.731766,134.878235 170.703094,134.866486 169.360947,134.917480 
z"/>
<path fill="#000000" opacity="1.000000" stroke="none" 
	d="
M129.432755,128.682648 
	C130.058228,129.295990 130.436707,129.636658 130.699982,130.050629 
	C133.028229,133.711639 133.087723,137.298904 129.829681,140.386520 
	C127.317772,142.767014 124.360001,142.860931 121.801933,140.477539 
	C119.030426,137.895264 117.914711,134.670181 119.871773,131.074875 
	C122.014969,127.137650 125.267082,126.584183 129.432755,128.682648 
z"/>
</svg>